<svg xmlns="http://www.w3.org/2000/svg" xmlns:xlink="http://www.w3.org/1999/xlink" viewBox="0 0 13 12"><path d="M 6.286 11.885 L 6.976 10.049 C 7.535 8.562 8.73 7.39 10.246 6.842 L 12.118 6.165 C 12.189 6.139 12.235 6.074 12.235 6 C 12.235 5.926 12.189 5.861 12.118 5.835 L 10.246 5.158 C 8.73 4.61 7.535 3.438 6.976 1.951 L 6.286 0.115 C 6.26 0.046 6.193 0 6.118 0 C 6.043 0 5.976 0.046 5.95 0.115 L 5.259 1.951 C 4.7 3.438 3.505 4.61 1.99 5.158 L 0.117 5.835 C 0.047 5.861 0 5.926 0 6 C 0 6.074 0.047 6.139 0.117 6.165 L 1.99 6.842 C 3.505 7.39 4.7 8.562 5.259 10.049 L 5.95 11.885 C 5.976 11.954 6.043 12 6.118 12 C 6.193 12 6.26 11.954 6.286 11.885 Z" fill="rgb(209, 46, 29)"></path></svg>